<svg xmlns="http://www.w3.org/2000/svg" width="21.983" height="23.608" viewBox="0 0 21.983 23.608">
  <g id="streamline-icon-interface-setting-cog_48x48" data-name="streamline-icon-interface-setting-cog@48x48" transform="translate(-2.237 -0.464)">
    <path id="Path_8" data-name="Path 8" d="M10.355,4.556l.7-1.8a1.624,1.624,0,0,1,1.51-1.039h1.331A1.624,1.624,0,0,1,15.4,2.753l.7,1.8L18.473,5.92l1.916-.292a1.624,1.624,0,0,1,1.624.8l.649,1.137a1.624,1.624,0,0,1-.13,1.835L21.347,10.9v2.728l1.218,1.51a1.624,1.624,0,0,1,.13,1.835l-.649,1.137a1.624,1.624,0,0,1-1.624.8l-1.916-.292-2.371,1.364-.7,1.8a1.624,1.624,0,0,1-1.51,1.039H12.563a1.624,1.624,0,0,1-1.51-1.039l-.7-1.8L7.984,18.617l-1.916.292a1.624,1.624,0,0,1-1.624-.8l-.649-1.137a1.624,1.624,0,0,1,.13-1.835l1.185-1.51V10.9L3.892,9.394a1.624,1.624,0,0,1-.13-1.835l.649-1.137a1.624,1.624,0,0,1,1.624-.8l1.916.292Zm-.373,7.712a3.247,3.247,0,1,0,3.247-3.247,3.247,3.247,0,0,0-3.247,3.247Z" transform="translate(0 0)" fill="none" stroke="#2b2b2b" stroke-linecap="round" stroke-linejoin="round" stroke-width="2.5"/>
  </g>
</svg>
